<mxfile host="app.diagrams.net" modified="2020-08-16T10:04:07.112Z" agent="5.0 (Windows)" etag="immxOXFHUJoEmF2CcmQd" version="13.6.2" type="github">
  <diagram id="SFTwNNUFkDEGVQa8I74H" name="Page-1">
    <mxGraphModel dx="1063" dy="463" grid="1" gridSize="10" guides="1" tooltips="1" connect="1" arrows="1" fold="1" page="1" pageScale="1" pageWidth="1200" pageHeight="1600" math="0" shadow="0">
      <root>
        <mxCell id="0" />
        <mxCell id="1" parent="0" />
        <mxCell id="nD6A3iVgp1iZObP_W5-t-57" value="Label" style="html=1;whiteSpace=wrap;container=1;recursiveResize=0;collapsible=0;" vertex="1" parent="1">
          <mxGeometry x="500" y="395" width="260" height="70" as="geometry" />
        </mxCell>
        <mxCell id="nD6A3iVgp1iZObP_W5-t-58" value="" style="triangle;html=1;whiteSpace=wrap;" vertex="1" parent="nD6A3iVgp1iZObP_W5-t-57">
          <mxGeometry x="20" y="20" width="20" height="30" as="geometry" />
        </mxCell>
        <mxCell id="nD6A3iVgp1iZObP_W5-t-56" value="" style="rounded=1;whiteSpace=wrap;html=1;" vertex="1" parent="1">
          <mxGeometry x="480" y="400" width="260" height="100" as="geometry" />
        </mxCell>
        <mxCell id="nD6A3iVgp1iZObP_W5-t-27" style="edgeStyle=orthogonalEdgeStyle;rounded=0;orthogonalLoop=1;jettySize=auto;html=1;" edge="1" parent="1" source="nD6A3iVgp1iZObP_W5-t-1" target="nD6A3iVgp1iZObP_W5-t-9">
          <mxGeometry relative="1" as="geometry" />
        </mxCell>
        <mxCell id="nD6A3iVgp1iZObP_W5-t-35" style="edgeStyle=orthogonalEdgeStyle;rounded=0;orthogonalLoop=1;jettySize=auto;html=1;entryX=0;entryY=0.5;entryDx=0;entryDy=0;entryPerimeter=0;" edge="1" parent="1" source="nD6A3iVgp1iZObP_W5-t-1" target="nD6A3iVgp1iZObP_W5-t-34">
          <mxGeometry relative="1" as="geometry" />
        </mxCell>
        <mxCell id="nD6A3iVgp1iZObP_W5-t-1" value="Actor" style="shape=umlActor;verticalLabelPosition=bottom;verticalAlign=top;html=1;outlineConnect=0;" vertex="1" parent="1">
          <mxGeometry x="80" y="200" width="30" height="60" as="geometry" />
        </mxCell>
        <mxCell id="nD6A3iVgp1iZObP_W5-t-2" value="&amp;nbsp;1" style="shape=internalStorage;whiteSpace=wrap;html=1;backgroundOutline=1;" vertex="1" parent="1">
          <mxGeometry x="560" y="70" width="190" height="120" as="geometry" />
        </mxCell>
        <mxCell id="nD6A3iVgp1iZObP_W5-t-3" value="Weblogic Domian Image " style="rounded=0;whiteSpace=wrap;html=1;" vertex="1" parent="1">
          <mxGeometry x="580" y="90" width="70" height="50" as="geometry" />
        </mxCell>
        <mxCell id="nD6A3iVgp1iZObP_W5-t-4" value="Operator image " style="rounded=0;whiteSpace=wrap;html=1;" vertex="1" parent="1">
          <mxGeometry x="580" y="140" width="70" height="50" as="geometry" />
        </mxCell>
        <mxCell id="nD6A3iVgp1iZObP_W5-t-5" value="Cluster " style="rounded=0;whiteSpace=wrap;html=1;" vertex="1" parent="1">
          <mxGeometry x="350" y="260" width="420" height="270" as="geometry" />
        </mxCell>
        <mxCell id="nD6A3iVgp1iZObP_W5-t-6" value="Kubernetese Cluster " style="text;html=1;align=center;verticalAlign=middle;resizable=0;points=[];autosize=1;" vertex="1" parent="1">
          <mxGeometry x="375" y="240" width="130" height="20" as="geometry" />
        </mxCell>
        <mxCell id="nD6A3iVgp1iZObP_W5-t-7" value="2.Secrets(ADMIN SErver)" style="rounded=0;whiteSpace=wrap;html=1;" vertex="1" parent="1">
          <mxGeometry x="520" y="270" width="130" height="40" as="geometry" />
        </mxCell>
        <mxCell id="nD6A3iVgp1iZObP_W5-t-8" value="Kubernestes" style="shape=cube;whiteSpace=wrap;html=1;boundedLbl=1;backgroundOutline=1;darkOpacity=0.05;darkOpacity2=0.1;" vertex="1" parent="1">
          <mxGeometry x="40" y="460" width="120" height="80" as="geometry" />
        </mxCell>
        <mxCell id="nD6A3iVgp1iZObP_W5-t-28" style="edgeStyle=orthogonalEdgeStyle;rounded=0;orthogonalLoop=1;jettySize=auto;html=1;" edge="1" parent="1" source="nD6A3iVgp1iZObP_W5-t-9" target="nD6A3iVgp1iZObP_W5-t-10">
          <mxGeometry relative="1" as="geometry">
            <Array as="points">
              <mxPoint x="470" y="220" />
            </Array>
          </mxGeometry>
        </mxCell>
        <mxCell id="nD6A3iVgp1iZObP_W5-t-29" style="edgeStyle=orthogonalEdgeStyle;rounded=0;orthogonalLoop=1;jettySize=auto;html=1;entryX=0;entryY=0;entryDx=0;entryDy=0;" edge="1" parent="1" source="nD6A3iVgp1iZObP_W5-t-9" target="nD6A3iVgp1iZObP_W5-t-26">
          <mxGeometry relative="1" as="geometry" />
        </mxCell>
        <mxCell id="nD6A3iVgp1iZObP_W5-t-9" value="3. HELM" style="icon;html=1;image=img/clipart/Gear_128x128.png" vertex="1" parent="1">
          <mxGeometry x="190" y="210" width="60" height="60" as="geometry" />
        </mxCell>
        <mxCell id="nD6A3iVgp1iZObP_W5-t-46" style="edgeStyle=orthogonalEdgeStyle;rounded=0;orthogonalLoop=1;jettySize=auto;html=1;" edge="1" parent="1" source="nD6A3iVgp1iZObP_W5-t-10" target="nD6A3iVgp1iZObP_W5-t-42">
          <mxGeometry relative="1" as="geometry" />
        </mxCell>
        <mxCell id="nD6A3iVgp1iZObP_W5-t-10" value="Operator " style="ellipse;shape=doubleEllipse;whiteSpace=wrap;html=1;" vertex="1" parent="1">
          <mxGeometry x="420" y="310" width="80" height="30" as="geometry" />
        </mxCell>
        <mxCell id="nD6A3iVgp1iZObP_W5-t-25" value="&lt;ul&gt;&lt;li&gt;User will &lt;br&gt;&lt;/li&gt;&lt;li&gt;Value 2&lt;/li&gt;&lt;li&gt;Value 3&lt;/li&gt;&lt;/ul&gt;" style="text;strokeColor=none;fillColor=none;html=1;whiteSpace=wrap;verticalAlign=middle;overflow=hidden;" vertex="1" parent="1">
          <mxGeometry x="830" y="130" width="200" height="310" as="geometry" />
        </mxCell>
        <mxCell id="nD6A3iVgp1iZObP_W5-t-26" value="LoadBalancer " style="ellipse;shape=doubleEllipse;whiteSpace=wrap;html=1;" vertex="1" parent="1">
          <mxGeometry x="510" y="320" width="80" height="40" as="geometry" />
        </mxCell>
        <mxCell id="nD6A3iVgp1iZObP_W5-t-32" value="Persistent Storage" style="shape=cube;whiteSpace=wrap;html=1;boundedLbl=1;backgroundOutline=1;darkOpacity=0.05;darkOpacity2=0.1;" vertex="1" parent="1">
          <mxGeometry x="390" y="480" width="350" height="40" as="geometry" />
        </mxCell>
        <mxCell id="nD6A3iVgp1iZObP_W5-t-39" style="edgeStyle=orthogonalEdgeStyle;rounded=0;orthogonalLoop=1;jettySize=auto;html=1;" edge="1" parent="1" source="nD6A3iVgp1iZObP_W5-t-34" target="nD6A3iVgp1iZObP_W5-t-38">
          <mxGeometry relative="1" as="geometry" />
        </mxCell>
        <mxCell id="nD6A3iVgp1iZObP_W5-t-34" value="Install Domain.Yaml" style="shape=note;whiteSpace=wrap;html=1;backgroundOutline=1;darkOpacity=0.05;" vertex="1" parent="1">
          <mxGeometry x="180" y="330" width="80" height="50" as="geometry" />
        </mxCell>
        <mxCell id="nD6A3iVgp1iZObP_W5-t-36" value="Domain-Configurations " style="ellipse;whiteSpace=wrap;html=1;" vertex="1" parent="1">
          <mxGeometry x="310" y="280" width="110" height="40" as="geometry" />
        </mxCell>
        <mxCell id="nD6A3iVgp1iZObP_W5-t-40" style="edgeStyle=orthogonalEdgeStyle;rounded=0;orthogonalLoop=1;jettySize=auto;html=1;entryX=0;entryY=1;entryDx=0;entryDy=0;" edge="1" parent="1" source="nD6A3iVgp1iZObP_W5-t-38" target="nD6A3iVgp1iZObP_W5-t-36">
          <mxGeometry relative="1" as="geometry" />
        </mxCell>
        <mxCell id="nD6A3iVgp1iZObP_W5-t-38" value="Kubectl create " style="text;html=1;align=center;verticalAlign=middle;resizable=0;points=[];autosize=1;" vertex="1" parent="1">
          <mxGeometry x="180" y="430" width="90" height="20" as="geometry" />
        </mxCell>
        <mxCell id="nD6A3iVgp1iZObP_W5-t-41" value="Admin " style="shape=cube;whiteSpace=wrap;html=1;boundedLbl=1;backgroundOutline=1;darkOpacity=0.05;darkOpacity2=0.1;" vertex="1" parent="1">
          <mxGeometry x="375" y="415" width="75" height="50" as="geometry" />
        </mxCell>
        <mxCell id="nD6A3iVgp1iZObP_W5-t-42" value="Admin " style="shape=cube;whiteSpace=wrap;html=1;boundedLbl=1;backgroundOutline=1;darkOpacity=0.05;darkOpacity2=0.1;" vertex="1" parent="1">
          <mxGeometry x="375" y="415" width="75" height="50" as="geometry" />
        </mxCell>
        <mxCell id="nD6A3iVgp1iZObP_W5-t-43" value="&lt;div&gt;POD&lt;/div&gt;&lt;div&gt;MS2&lt;/div&gt;" style="shape=cube;whiteSpace=wrap;html=1;boundedLbl=1;backgroundOutline=1;darkOpacity=0.05;darkOpacity2=0.1;" vertex="1" parent="1">
          <mxGeometry x="480" y="400" width="75" height="75" as="geometry" />
        </mxCell>
        <mxCell id="nD6A3iVgp1iZObP_W5-t-44" value="&lt;div&gt;POD&lt;/div&gt;&lt;div&gt;MS2&lt;/div&gt;" style="shape=cube;whiteSpace=wrap;html=1;boundedLbl=1;backgroundOutline=1;darkOpacity=0.05;darkOpacity2=0.1;" vertex="1" parent="1">
          <mxGeometry x="570" y="405" width="75" height="75" as="geometry" />
        </mxCell>
        <mxCell id="nD6A3iVgp1iZObP_W5-t-45" value="&lt;div&gt;POD&lt;/div&gt;&lt;div&gt;MS2&lt;/div&gt;" style="shape=cube;whiteSpace=wrap;html=1;boundedLbl=1;backgroundOutline=1;darkOpacity=0.05;darkOpacity2=0.1;" vertex="1" parent="1">
          <mxGeometry x="650" y="400" width="75" height="75" as="geometry" />
        </mxCell>
        <mxCell id="nD6A3iVgp1iZObP_W5-t-47" value="" style="edgeStyle=segmentEdgeStyle;endArrow=classic;html=1;" edge="1" parent="1" source="nD6A3iVgp1iZObP_W5-t-10" target="nD6A3iVgp1iZObP_W5-t-43">
          <mxGeometry width="50" height="50" relative="1" as="geometry">
            <mxPoint x="490" y="380" as="sourcePoint" />
            <mxPoint x="490" y="390" as="targetPoint" />
            <Array as="points">
              <mxPoint x="518" y="325" />
            </Array>
          </mxGeometry>
        </mxCell>
        <mxCell id="nD6A3iVgp1iZObP_W5-t-52" style="edgeStyle=orthogonalEdgeStyle;rounded=0;orthogonalLoop=1;jettySize=auto;html=1;" edge="1" parent="1" source="nD6A3iVgp1iZObP_W5-t-48" target="nD6A3iVgp1iZObP_W5-t-44">
          <mxGeometry relative="1" as="geometry" />
        </mxCell>
        <mxCell id="nD6A3iVgp1iZObP_W5-t-48" value="Operator " style="ellipse;shape=doubleEllipse;whiteSpace=wrap;html=1;" vertex="1" parent="1">
          <mxGeometry x="420" y="310" width="80" height="30" as="geometry" />
        </mxCell>
        <mxCell id="nD6A3iVgp1iZObP_W5-t-50" value="" style="edgeStyle=segmentEdgeStyle;endArrow=classic;html=1;" edge="1" parent="1">
          <mxGeometry width="50" height="50" relative="1" as="geometry">
            <mxPoint x="500" y="325" as="sourcePoint" />
            <mxPoint x="518" y="400" as="targetPoint" />
            <Array as="points">
              <mxPoint x="518" y="325" />
            </Array>
          </mxGeometry>
        </mxCell>
        <mxCell id="nD6A3iVgp1iZObP_W5-t-53" style="edgeStyle=orthogonalEdgeStyle;rounded=0;orthogonalLoop=1;jettySize=auto;html=1;" edge="1" parent="1">
          <mxGeometry relative="1" as="geometry">
            <mxPoint x="500" y="325" as="sourcePoint" />
            <mxPoint x="607.5" y="405" as="targetPoint" />
          </mxGeometry>
        </mxCell>
        <mxCell id="nD6A3iVgp1iZObP_W5-t-54" value="" style="endArrow=classic;html=1;entryX=0.267;entryY=0.133;entryDx=0;entryDy=0;entryPerimeter=0;" edge="1" parent="1" target="nD6A3iVgp1iZObP_W5-t-45">
          <mxGeometry width="50" height="50" relative="1" as="geometry">
            <mxPoint x="480" y="310" as="sourcePoint" />
            <mxPoint x="780" y="190" as="targetPoint" />
            <Array as="points">
              <mxPoint x="490" y="210" />
              <mxPoint x="670" y="200" />
            </Array>
          </mxGeometry>
        </mxCell>
        <mxCell id="nD6A3iVgp1iZObP_W5-t-55" value="Kubectl create " style="text;html=1;align=center;verticalAlign=middle;resizable=0;points=[];autosize=1;" vertex="1" parent="1">
          <mxGeometry x="170" y="490" width="90" height="20" as="geometry" />
        </mxCell>
      </root>
    </mxGraphModel>
  </diagram>
</mxfile>
